# xmcd
#
# Track frame offsets:
#	150
#	20157
#	37420
#	56742
#	76152
#	98812
#	125304
#	144620
#	161897
#	180305
#
# Disc length: 2640 seconds
#
# Revision: 0
# Processed by: cddbd v1.5PL3 Copyright (c) Steve Scherf et al.
# Submitted via: dBpowerAMP V4.0
#
DISCID=880a4e0a
DTITLE=林志穎 - 期待
DYEAR=1996
DGENRE=
TTITLE0=熱火
TTITLE1=期待
TTITLE2=告訴我你還在
TTITLE3=用心
TTITLE4=曾在這裡的心
TTITLE5=Lonely Christmas
TTITLE6=想你
TTITLE7=非常歡迎
TTITLE8=好想愛你
TTITLE9=錯一次最好
EXTD=
EXTT0=
EXTT1=
EXTT2=
EXTT3=
EXTT4=
EXTT5=
EXTT6=
EXTT7=
EXTT8=
EXTT9=
PLAYORDER=
